<svg width="20" height="20" viewBox="0 0 20 20" fill="none" xmlns="http://www.w3.org/2000/svg">
<path d="M8.83314 10.5917C8.75503 10.5142 8.69303 10.422 8.65073 10.3205C8.60842 10.2189 8.58664 10.11 8.58664 10C8.58664 9.89 8.60842 9.78108 8.65073 9.67953C8.69303 9.57798 8.75503 9.48581 8.83314 9.40834L12.6581 5.59168C12.7362 5.51421 12.7982 5.42204 12.8405 5.32049C12.8829 5.21894 12.9046 5.11002 12.9046 5.00001C12.9046 4.89 12.8829 4.78108 12.8405 4.67953C12.7982 4.57798 12.7362 4.48581 12.6581 4.40834C12.502 4.25313 12.2908 4.16602 12.0706 4.16602C11.8505 4.16602 11.6393 4.25313 11.4831 4.40834L7.65813 8.23334C7.18997 8.70209 6.927 9.33751 6.927 10C6.927 10.6625 7.18997 11.2979 7.65813 11.7667L11.4831 15.5917C11.6384 15.7456 11.8479 15.8324 12.0665 15.8333C12.1761 15.834 12.2849 15.813 12.3864 15.7715C12.4879 15.73 12.5803 15.6689 12.6581 15.5917C12.7362 15.5142 12.7982 15.422 12.8405 15.3205C12.8829 15.2189 12.9046 15.11 12.9046 15C12.9046 14.89 12.8829 14.7811 12.8405 14.6795C12.7982 14.578 12.7362 14.4858 12.6581 14.4083L8.83314 10.5917Z" fill="#122E5F"/>
</svg>
