<svg width="270" height="57" viewBox="0 0 270 57" fill="none" xmlns="http://www.w3.org/2000/svg">
<circle cx="18.8171" cy="28.2859" r="18.8171" fill="#6B49F5"/>
<path d="M57.6338 55.7554V0H79.6311C83.8599 0 87.4626 0.807657 90.4391 2.42297C93.4156 4.02013 95.6843 6.24345 97.2452 9.09293C98.8242 11.9243 99.6137 15.1912 99.6137 18.8937C99.6137 22.5962 98.8151 25.8631 97.218 28.6945C95.6208 31.5258 93.3067 33.7309 90.2758 35.31C87.2629 36.889 83.6149 37.6785 79.3316 37.6785H65.3111V28.2316H77.4259C79.6946 28.2316 81.564 27.8414 83.0341 27.061C84.5224 26.2624 85.6295 25.1644 86.3555 23.7668C87.0996 22.3512 87.4717 20.7268 87.4717 18.8937C87.4717 17.0424 87.0996 15.4271 86.3555 14.0478C85.6295 12.6502 84.5224 11.5703 83.0341 10.8081C81.5458 10.0276 79.6583 9.63742 77.3714 9.63742H69.4219V55.7554H57.6338Z" fill="black"/>
<path d="M125.436 56.5722C121.135 56.5722 117.432 55.701 114.328 53.9586C111.243 52.1981 108.865 49.7116 107.196 46.4992C105.526 43.2685 104.691 39.4481 104.691 35.0377C104.691 30.7363 105.526 26.9612 107.196 23.7124C108.865 20.4636 111.216 17.9318 114.247 16.1168C117.296 14.3019 120.871 13.3944 124.973 13.3944C127.732 13.3944 130.3 13.839 132.678 14.7284C135.073 15.5995 137.161 16.9154 138.939 18.6759C140.736 20.4364 142.134 22.6507 143.132 25.3186C144.13 27.9685 144.629 31.072 144.629 34.6294V37.8146H109.319V30.6274H133.712C133.712 28.9576 133.349 27.4784 132.623 26.1898C131.897 24.9012 130.89 23.8939 129.601 23.1679C128.331 22.4238 126.852 22.0517 125.164 22.0517C123.403 22.0517 121.842 22.4601 120.481 23.2768C119.138 24.0754 118.085 25.1553 117.323 26.5165C116.561 27.8596 116.171 29.3569 116.152 31.0085V37.8418C116.152 39.9109 116.534 41.6986 117.296 43.205C118.076 44.7114 119.174 45.873 120.59 46.6897C122.006 47.5065 123.685 47.9148 125.627 47.9148C126.915 47.9148 128.095 47.7333 129.166 47.3703C130.237 47.0074 131.153 46.4629 131.915 45.7369C132.678 45.0109 133.258 44.1216 133.658 43.0689L144.384 43.7767C143.84 46.354 142.723 48.6045 141.036 50.5284C139.366 52.4341 137.206 53.9223 134.556 54.9932C131.924 56.0458 128.884 56.5722 125.436 56.5722Z" fill="black"/>
<path d="M167.606 56.4361C164.43 56.4361 161.554 55.6193 158.976 53.9859C156.417 52.3342 154.385 49.9113 152.878 46.717C151.39 43.5045 150.646 39.566 150.646 34.9016C150.646 30.1101 151.417 26.1263 152.96 22.9501C154.503 19.7558 156.553 17.3691 159.113 15.7901C161.69 14.193 164.512 13.3944 167.579 13.3944C169.921 13.3944 171.872 13.7937 173.433 14.5922C175.012 15.3727 176.282 16.3528 177.244 17.5325C178.224 18.694 178.968 19.8375 179.476 20.9627H179.83V0H191.401V55.7554H179.966V49.0583H179.476C178.932 50.2198 178.16 51.3723 177.162 52.5157C176.182 53.641 174.903 54.5757 173.324 55.3198C171.763 56.064 169.857 56.4361 167.606 56.4361ZM171.282 47.207C173.151 47.207 174.73 46.6988 176.019 45.6824C177.326 44.6479 178.324 43.205 179.013 41.3538C179.721 39.5025 180.075 37.3336 180.075 34.8471C180.075 32.3607 179.73 30.2009 179.041 28.3678C178.351 26.5347 177.353 25.119 176.046 24.1208C174.739 23.1225 173.151 22.6234 171.282 22.6234C169.376 22.6234 167.77 23.1407 166.463 24.1752C165.156 25.2097 164.167 26.6435 163.496 28.4767C162.824 30.3098 162.488 32.4333 162.488 34.8471C162.488 37.2792 162.824 39.4299 163.496 41.2993C164.185 43.1506 165.174 44.6025 166.463 45.6552C167.77 46.6897 169.376 47.207 171.282 47.207Z" fill="black"/>
<path d="M200.936 55.7554V13.9389H212.18V21.235H212.615C213.377 18.6396 214.657 16.6794 216.454 15.3545C218.251 14.0115 220.32 13.3399 222.661 13.3399C223.242 13.3399 223.868 13.3762 224.539 13.4488C225.211 13.5214 225.801 13.6212 226.309 13.7483V24.0391C225.764 23.8757 225.011 23.7305 224.049 23.6035C223.087 23.4765 222.207 23.4129 221.409 23.4129C219.703 23.4129 218.178 23.785 216.835 24.5291C215.51 25.2551 214.457 26.2715 213.677 27.5783C212.915 28.885 212.533 30.3914 212.533 32.0975V55.7554H200.936Z" fill="black"/>
<path d="M249.252 56.5722C245.023 56.5722 241.366 55.6738 238.281 53.877C235.214 52.062 232.845 49.5392 231.175 46.3086C229.506 43.0598 228.671 39.2938 228.671 35.0105C228.671 30.6909 229.506 26.9158 231.175 23.6852C232.845 20.4364 235.214 17.9136 238.281 16.1168C241.366 14.3019 245.023 13.3944 249.252 13.3944C253.481 13.3944 257.129 14.3019 260.196 16.1168C263.282 17.9136 265.659 20.4364 267.329 23.6852C268.999 26.9158 269.834 30.6909 269.834 35.0105C269.834 39.2938 268.999 43.0598 267.329 46.3086C265.659 49.5392 263.282 52.062 260.196 53.877C257.129 55.6738 253.481 56.5722 249.252 56.5722ZM249.307 47.5881C251.231 47.5881 252.837 47.0437 254.125 45.9547C255.414 44.8476 256.385 43.3411 257.038 41.4354C257.71 39.5297 258.046 37.3609 258.046 34.9288C258.046 32.4968 257.71 30.3279 257.038 28.4222C256.385 26.5165 255.414 25.0101 254.125 23.903C252.837 22.7958 251.231 22.2423 249.307 22.2423C247.365 22.2423 245.731 22.7958 244.406 23.903C243.1 25.0101 242.11 26.5165 241.439 28.4222C240.785 30.3279 240.459 32.4968 240.459 34.9288C240.459 37.3609 240.785 39.5297 241.439 41.4354C242.11 43.3411 243.1 44.8476 244.406 45.9547C245.731 47.0437 247.365 47.5881 249.307 47.5881Z" fill="black"/>
</svg>
